<?xml version="1.0" encoding="utf-8"?>
<!-- Generator: Adobe Illustrator 28.3.0, SVG Export Plug-In . SVG Version: 6.00 Build 0)  -->
<svg version="1.1" id="Layer_1" xmlns="http://www.w3.org/2000/svg" xmlns:xlink="http://www.w3.org/1999/xlink" x="0px" y="0px"
	 viewBox="0 0 957.88 733" style="enable-background:new 0 0 957.88 733;" xml:space="preserve">
<style type="text/css">
	.st0{fill:#112E6C;}
	.st1{fill:#FDFF00;}
	.st2{fill:#1B50C1;}
</style>
<path class="st0" d="M80.65,733h-0.77v-0.01C80.14,733,80.39,733,80.65,733z"/>
<path class="st0" d="M86.96,733h-7.08v-0.5C82.21,732.83,84.57,733,86.96,733z"/>
<rect x="957.88" class="st1" width="1" height="733"/>
<path class="st2" d="M960.88,0v733H51.67c-28.05,0-50.79-22.74-50.79-50.79V458.83c0-31.04,13.25-60.6,36.43-81.26l3.39-3.03
	l42.18-47.23l248.39-278.2c0.17-0.19,0.33-0.37,0.5-0.56C359.61,17.5,399.53,0,441.25,0H960.88z"/>
</svg>
