<?xml version="1.0" encoding="utf-8"?>
<!-- Generator: Adobe Illustrator 28.3.0, SVG Export Plug-In . SVG Version: 6.00 Build 0)  -->
<svg version="1.1" id="Layer_1" xmlns="http://www.w3.org/2000/svg" xmlns:xlink="http://www.w3.org/1999/xlink" x="0px" y="0px"
	 viewBox="0 0 961.88 733" style="enable-background:new 0 0 961.88 733;" xml:space="preserve">
<style type="text/css">
	.st0{fill:#112E6C;}
	.st1{fill:#60EBD3;}
	.st2{fill:#FDFF00;}
</style>
<path class="st0" d="M84.65,733h-0.77v-0.01C84.14,733,84.39,733,84.65,733z"/>
<path class="st0" d="M90.96,733h-7.08v-0.5C86.21,732.83,88.57,733,90.96,733z"/>
<path class="st1" d="M961.88,0v733H52.67c-28.05,0-50.79-22.74-50.79-50.79V458.83c0-15.35,3.24-30.33,9.32-44.05
	c3.46-9.66,8.32-18.87,14.49-27.33l71.19-97.58L288.07,27.82c0.07-0.1,0.14-0.19,0.21-0.29C301,10.14,321.38,0,342.93,0H961.88z"/>
<rect x="961.88" class="st2" width="1" height="733"/>
</svg>
